<svg width="160" height="48" viewBox="0 0 160 48" fill="none" xmlns="http://www.w3.org/2000/svg">
  <defs>
    <linearGradient id="g" x1="0" y1="0" x2="160" y2="48" gradientUnits="userSpaceOnUse">
      <stop stop-color="#0B5FA5"/>
      <stop offset="1" stop-color="#1C8AD8"/>
    </linearGradient>
  </defs>
  <rect x="0" y="4" width="40" height="40" rx="12" fill="url(#g)"/>
  <path d="M26.3 16.2c-1.4-1.4-3.4-2.2-5.7-2.2-4.6 0-8.4 3.7-8.4 8.4 0 4.6 3.7 8.4 8.4 8.4 2.4 0 4.4-.8 5.7-2.2l-2.7-2.7c-.6.6-1.6 1-3 1-2.4 0-4.3-2-4.3-4.4 0-2.4 1.9-4.4 4.3-4.4 1.3 0 2.3.4 3 1l2.7-2.9Z" fill="white" opacity="0.95"/>
  <path d="M30.2 30.2c1.1-1.5 1.7-3.4 1.7-5.5 0-4.6-3.7-8.4-8.4-8.4-2.1 0-4 .6-5.5 1.7l2.7 2.7c.8-.4 1.7-.6 2.8-.6 2.4 0 4.3 2 4.3 4.4 0 1.1-.4 2.1-.9 2.9l3 2.8Z" fill="white" opacity="0.75"/>
  <text x="50" y="22" font-family="Inter, system-ui, -apple-system, Segoe UI, Roboto, Helvetica, Arial" font-size="16" font-weight="700" fill="#0F172A">Sahha</text>
  <text x="50" y="38" font-family="Inter, system-ui, -apple-system, Segoe UI, Roboto, Helvetica, Arial" font-size="12" font-weight="600" fill="#475569">Home Health Care</text>
</svg>
